<svg xmlns="http://www.w3.org/2000/svg" viewBox="0 0 400 300" role="img" aria-label="Pololu Maestro 18 servo controller: a small upright board with eighteen three-pin servo channels, a nine-pin control header, two indicator LEDs and a USB mini-B socket on the bottom edge">
  <g fill="none" stroke="currentColor" stroke-linecap="round" stroke-linejoin="round">
    <rect x="136.4" y="46.0" width="127.1" height="208.0" rx="4" stroke-width="2.4"/>
    <rect x="146.4" y="62.0" width="107.1" height="108.2" rx="2" stroke-width="1.4"/>
    <g fill="currentColor" stroke="none" opacity="0.9">
      <rect x="161.1" y="67.8" width="6.4" height="6.4" rx="1"/>
      <rect x="161.1" y="85.8" width="6.4" height="6.4" rx="1"/>
      <rect x="161.1" y="103.9" width="6.4" height="6.4" rx="1"/>
      <rect x="161.1" y="121.9" width="6.4" height="6.4" rx="1"/>
      <rect x="161.1" y="139.9" width="6.4" height="6.4" rx="1"/>
      <rect x="161.1" y="157.9" width="6.4" height="6.4" rx="1"/>
      <rect x="196.8" y="67.8" width="6.4" height="6.4" rx="1"/>
      <rect x="196.8" y="85.8" width="6.4" height="6.4" rx="1"/>
      <rect x="196.8" y="103.9" width="6.4" height="6.4" rx="1"/>
      <rect x="196.8" y="121.9" width="6.4" height="6.4" rx="1"/>
      <rect x="196.8" y="139.9" width="6.4" height="6.4" rx="1"/>
      <rect x="196.8" y="157.9" width="6.4" height="6.4" rx="1"/>
      <rect x="232.5" y="67.8" width="6.4" height="6.4" rx="1"/>
      <rect x="232.5" y="85.8" width="6.4" height="6.4" rx="1"/>
      <rect x="232.5" y="103.9" width="6.4" height="6.4" rx="1"/>
      <rect x="232.5" y="121.9" width="6.4" height="6.4" rx="1"/>
      <rect x="232.5" y="139.9" width="6.4" height="6.4" rx="1"/>
      <rect x="232.5" y="157.9" width="6.4" height="6.4" rx="1"/>
    </g>
    <g fill="currentColor" stroke="none" font-family="ui-monospace,monospace" font-size="9" opacity="0.72">
      <text x="146.4" y="58.0" text-anchor="start">0</text>
    </g>
    <g fill="currentColor" stroke="none" font-family="ui-monospace,monospace" font-size="9" opacity="0.72">
      <text x="253.6" y="58.0" text-anchor="end">17</text>
    </g>
    <rect x="183.0" y="241.0" width="34" height="13" rx="2" stroke-width="1.4"/>
    <rect x="188.0" y="244.0" width="24" height="7" rx="1.5" stroke-width="1.15"/>
    <g fill="currentColor" stroke="none" opacity="0.9">
      <rect x="149.6" y="184.6" width="5.6" height="5.6" rx="1"/>
      <rect x="161.5" y="184.6" width="5.6" height="5.6" rx="1"/>
      <rect x="173.4" y="184.6" width="5.6" height="5.6" rx="1"/>
      <rect x="185.3" y="184.6" width="5.6" height="5.6" rx="1"/>
      <rect x="197.2" y="184.6" width="5.6" height="5.6" rx="1"/>
      <rect x="209.1" y="184.6" width="5.6" height="5.6" rx="1"/>
      <rect x="221.0" y="184.6" width="5.6" height="5.6" rx="1"/>
      <rect x="232.9" y="184.6" width="5.6" height="5.6" rx="1"/>
      <rect x="244.8" y="184.6" width="5.6" height="5.6" rx="1"/>
    </g>
    <g fill="currentColor" stroke="none" font-family="ui-monospace,monospace" font-size="8" opacity="0.6">
      <text x="152.4" y="178.4" text-anchor="start">RST ERR TXIN</text>
    </g>
    <circle cx="154.4" cy="212.4" r="4.5" stroke-width="1.15"/>
    <circle cx="168.4" cy="212.4" r="4.5" stroke-width="1.15"/>
    <rect x="223.6" y="208.2" width="26" height="11" rx="2" stroke-width="1.15"/>
    <g fill="currentColor" stroke="none" font-family="ui-monospace,monospace" font-size="9" opacity="0.55">
      <text x="249.6" y="241.5" text-anchor="end">Maestro 18</text>
    </g>
  </g>
</svg>
